<svg fill="currentColor" vector-effect="non-scaling-stroke" xmlns="http://www.w3.org/2000/svg" width="472" height="472" viewBox="0 0 472 472" version="1.1">
	<path d="M 0.024 308.083 C 0.038 314.363, 0.490 321.411, 1.029 323.747 C 5.097 341.381, 7.485 378.134, 6.664 410.500 C 6.060 434.347, 4.647 460.191, 3.507 468.250 C 2.998 471.849, 3.094 472, 5.900 472 C 8.512 472, 8.884 471.600, 9.388 468.250 C 12.620 446.756, 13.362 372.820, 10.589 348.500 C 8.331 328.702, 2.494 299.161, 0.432 297.099 C 0.195 296.861, 0.011 301.804, 0.024 308.083 M 139.500 462.701 C 134.679 463.831, 128.137 466.344, 123.569 468.822 L 118.631 471.500 124.370 471.802 C 128.369 472.012, 131.819 471.463, 135.750 469.992 C 143.506 467.091, 152.200 467.033, 156.021 469.858 C 157.615 471.036, 160.313 472, 162.016 472 L 165.113 472 163.328 468.979 C 160.748 464.610, 154.645 461.975, 147.434 462.116 C 144.170 462.180, 140.600 462.443, 139.500 462.701" stroke="none" fill="currentColor" fill-rule="evenodd"/>
</svg>