<svg xmlns="http://www.w3.org/2000/svg" viewBox="0 0 482 338" width="100%" height="100%">
  <path d="M 3 1.221 C 3 1.649, 2.395 2, 1.656 2 C 0.606 2, 0.298 4.771, 0.247 14.716 L 0.180 27.431 5.454 32.498 C 8.354 35.285, 11.039 38.546, 11.419 39.745 C 12.137 42.006, 10.608 46, 9.024 46 C 7.459 46, 6.725 43.875, 7.887 42.713 C 9.366 41.234, 9.298 40, 7.737 40 C 7.043 40, 6.030 38.987, 5.487 37.750 C 4.944 36.513, 3.845 35.500, 3.045 35.500 C 1.872 35.500, 1.526 37.810, 1.258 47.432 C 0.853 61.977, 1.391 63.992, 4.220 58.526 C 5.352 56.340, 8.240 52.644, 10.639 50.313 C 14.166 46.885, 15 45.398, 15 42.537 C 15 39.393, 15.289 39, 17.606 39 C 19.039 39, 21.497 37.918, 23.069 36.596 C 24.640 35.273, 26.472 34.009, 27.140 33.787 C 29.522 32.993, 26.795 30.951, 23.637 31.164 C 21.870 31.283, 19.879 31.043, 19.212 30.631 C 18.421 30.142, 18 30.560, 18 31.834 C 18 33.849, 15.514 35.436, 13.910 34.444 C 13.409 34.135, 13 32.170, 13 30.077 C 13 27.985, 12.553 23.914, 12.006 21.031 C 11.459 18.148, 11.301 15.322, 11.655 14.749 C 12.760 12.961, 15.914 20.290, 15.958 24.750 C 16.001 29.089, 16.714 29.886, 18.742 27.858 C 19.597 27.003, 20.793 27.148, 23.512 28.438 C 25.507 29.385, 27.783 29.913, 28.570 29.612 C 30.479 28.879, 30.379 25.987, 28.346 23.084 C 27.039 21.218, 26.934 20.335, 27.846 18.875 C 28.481 17.859, 29 16.796, 29 16.514 C 29 16.231, 27.087 15.981, 24.750 15.958 C 22.413 15.935, 19.016 15.125, 17.201 14.157 C 13.903 12.399, 13.903 12.398, 15.951 10.544 C 17.078 9.524, 18 8.163, 18 7.519 C 18 6.875, 19.145 5.273, 20.545 3.958 C 22.551 2.073, 23.451 1.794, 24.795 2.641 C 28.062 4.698, 27.262 6.515, 22.532 7.780 C 16.730 9.332, 16.598 11.506, 22.250 12.437 C 24.587 12.822, 27.546 13.109, 28.825 13.074 C 32.170 12.982, 35.029 14.761, 34.356 16.515 C 34.042 17.332, 32.908 18, 31.834 18 C 30.560 18, 30.142 18.421, 30.631 19.212 C 31.043 19.879, 31.284 21.852, 31.167 23.596 C 30.925 27.187, 33.508 29.127, 34.474 26.081 C 34.792 25.081, 35.940 23.460, 37.026 22.477 C 38.111 21.494, 39 19.410, 39 17.845 C 39 15.265, 39.323 15, 42.468 15 C 45.286 15, 46.927 14.040, 51.218 9.881 C 54.123 7.066, 57.512 4.377, 58.750 3.906 C 59.987 3.435, 61 2.567, 61 1.978 C 61 1.255, 56.857 1.016, 48.250 1.243 C 37.890 1.516, 35.500 1.853, 35.500 3.039 C 35.500 3.843, 36.512 4.944, 37.750 5.487 C 38.987 6.030, 40 7.043, 40 7.737 C 40 9.298, 41.234 9.366, 42.713 7.887 C 43.875 6.725, 46 7.459, 46 9.024 C 46 9.522, 45.129 10.396, 44.065 10.965 C 41.129 12.536, 37.152 10.568, 31.994 4.991 L 27.489 0.118 15.244 0.280 C 8.510 0.369, 3 0.793, 3 1.221 M 449.029 4.966 C 443.849 10.566, 439.874 12.538, 436.935 10.965 C 435.871 10.396, 435 9.544, 435 9.072 C 435 7.779, 437.850 6.948, 438.527 8.044 C 439.379 9.422, 441 9.221, 441 7.737 C 441 7.043, 442.012 6.030, 443.250 5.487 C 444.488 4.944, 445.500 3.845, 445.500 3.045 C 445.500 1.872, 443.190 1.526, 433.568 1.258 C 427.006 1.075, 420.966 1.183, 420.147 1.497 C 419.102 1.898, 419.811 2.687, 422.519 4.138 C 424.643 5.276, 428.303 8.186, 430.653 10.604 C 434.114 14.165, 435.597 15, 438.463 15 C 441.607 15, 442 15.289, 442 17.606 C 442 19.039, 443.082 21.497, 444.404 23.069 C 445.727 24.640, 446.991 26.472, 447.213 27.140 C 448.007 29.522, 450.049 26.795, 449.836 23.637 C 449.717 21.870, 449.957 19.879, 450.369 19.212 C 450.858 18.421, 450.440 18, 449.166 18 C 447.081 18, 445.757 15.934, 446.843 14.373 C 447.204 13.853, 449.300 13.292, 451.500 13.128 C 453.700 12.963, 457.685 12.420, 460.355 11.920 C 463.025 11.421, 465.678 11.301, 466.251 11.655 C 468.039 12.760, 460.710 15.914, 456.250 15.958 C 451.911 16.001, 451.114 16.714, 453.142 18.742 C 453.997 19.597, 453.852 20.793, 452.562 23.512 C 450.809 27.204, 451.027 30, 453.067 30 C 453.689 30, 455.755 29.261, 457.657 28.358 C 460.250 27.128, 461.403 27.003, 462.258 27.858 C 464.263 29.863, 465 29.103, 465 25.034 C 465 22.853, 465.757 19.481, 466.682 17.541 C 468.350 14.042, 468.379 14.030, 470.221 16.007 C 471.242 17.103, 472.657 18, 473.365 18 C 474.072 18, 475.672 19.087, 476.920 20.415 C 479.488 23.148, 479.031 27, 476.140 27 C 474.940 27, 474.048 25.629, 473.211 22.500 C 472.461 19.695, 471.441 18, 470.504 18 C 468.977 18, 468.824 18.761, 468.419 28.375 C 468.306 31.056, 467.644 33.602, 466.948 34.032 C 465.606 34.861, 463.004 34.260, 463.150 33.155 C 463.432 31.028, 462.860 29.968, 461.788 30.631 C 461.121 31.043, 459.148 31.284, 457.404 31.167 C 453.813 30.925, 451.873 33.508, 454.919 34.474 C 455.919 34.792, 457.540 35.940, 458.523 37.026 C 459.506 38.111, 461.590 39, 463.155 39 C 465.748 39, 466 39.315, 466 42.556 C 466 45.516, 466.835 46.913, 470.975 50.883 C 473.712 53.507, 476.603 57.194, 477.401 59.077 C 479.550 64.152, 480.128 61.279, 479.742 47.432 C 479.474 37.810, 479.128 35.500, 477.955 35.500 C 477.155 35.500, 476.056 36.513, 475.513 37.750 C 474.970 38.987, 473.957 40, 473.263 40 C 471.702 40, 471.634 41.234, 473.113 42.713 C 474.275 43.875, 473.541 46, 471.976 46 C 471.478 46, 470.604 45.129, 470.035 44.065 C 468.444 41.092, 470.335 37.457, 476.512 31.615 C 481.439 26.956, 482 26.004, 482 22.296 C 482 19.930, 481.466 17.950, 480.750 17.659 C 479.780 17.266, 479.805 16.939, 480.863 16.197 C 482.014 15.391, 482.014 15.145, 480.863 14.621 C 479.808 14.140, 479.782 13.868, 480.750 13.417 C 482.589 12.559, 482.436 3, 480.583 3 C 479.804 3, 478.981 2.442, 478.753 1.760 C 478.460 0.879, 474.750 0.455, 465.949 0.294 L 453.557 0.069 449.029 4.966 M 61.655 3.829 C 60.745 4.835, 60 5.960, 60 6.329 C 60 6.698, 141.225 7, 240.500 7 C 339.775 7, 421 6.620, 421 6.155 C 421 5.690, 420.177 4.565, 419.171 3.655 C 417.484 2.128, 403.638 2, 240.326 2 C 70.106 2, 63.246 2.070, 61.655 3.829 M 455.200 3.200 C 453.442 4.958, 453.737 6.999, 455.750 7.006 C 456.712 7.010, 458.789 7.685, 460.364 8.506 C 461.940 9.328, 463.360 10, 463.521 10 C 464.388 10, 462.541 5.884, 460.867 4.088 C 458.663 1.722, 456.947 1.453, 455.200 3.200 M 3 3.765 C 3 4.828, 5.148 7, 6.200 7 C 7.752 7, 6.975 5.057, 5 4 C 3.900 3.411, 3 3.305, 3 3.765 M 475.200 4.200 C 473.567 5.833, 473.692 7, 475.500 7 C 476.325 7, 477 6.812, 477 6.582 C 477 6.352, 477.273 5.452, 477.607 4.582 C 478.323 2.715, 476.909 2.491, 475.200 4.200 M 9.455 9.455 C 7.439 11.471, 7.042 12.442, 7.891 13.291 C 8.739 14.139, 9.711 13.743, 11.727 11.727 C 13.743 9.711, 14.139 8.739, 13.291 7.891 C 12.442 7.042, 11.471 7.439, 9.455 9.455 M 467.437 8.101 C 466.546 9.544, 471.456 14.454, 472.899 13.563 C 473.673 13.084, 473.698 12.304, 472.980 10.962 C 471.574 8.335, 468.328 6.660, 467.437 8.101 M 33.242 33.258 L 11 55.516 11 168.500 L 11 281.484 33.242 303.742 L 55.483 326 240.652 326 L 425.820 326 447.910 303.910 L 470 281.820 470 168.500 L 470 55.180 447.910 33.090 L 425.820 11 240.652 11 L 55.483 11 33.242 33.258 M 35.082 35.082 L 14 56.165 14 168.500 L 14 280.835 35.082 301.918 L 56.165 323 240.500 323 L 424.835 323 445.918 301.918 L 467 280.835 467 168.500 L 467 56.165 445.918 35.082 L 424.835 14 240.500 14 L 56.165 14 35.082 35.082 M 5.693 19.563 C 1.830 22.188, 1.190 23.790, 3.200 25.800 C 4.958 27.558, 6.999 27.263, 7.006 25.250 C 7.010 24.288, 7.693 22.196, 8.524 20.601 C 9.355 19.007, 9.890 17.556, 9.711 17.378 C 9.532 17.199, 7.724 18.182, 5.693 19.563 M 3.727 61.750 C 2.305 63.323, 2.121 75.570, 1.910 182.500 C 1.710 284.413, 1.879 301.500, 3.088 301.500 C 3.865 301.500, 4.944 300.488, 5.487 299.250 C 6.030 298.012, 7.043 297, 7.737 297 C 9.298 297, 9.366 295.766, 7.887 294.287 C 6.725 293.125, 7.459 291, 9.024 291 C 10.608 291, 12.137 294.994, 11.419 297.255 C 11.039 298.454, 8.333 301.735, 5.407 304.547 L 0.086 309.659 0.299 321.580 C 0.462 330.753, 0.889 334.035, 2.149 335.820 C 3.340 337.508, 3.952 337.780, 4.393 336.820 C 4.869 335.786, 5.126 335.770, 5.583 336.750 C 5.904 337.437, 7.667 338, 9.500 338 C 11.333 338, 13.062 337.437, 13.341 336.750 C 13.722 335.809, 14.110 335.871, 14.909 337 C 15.628 338.017, 15.974 338.097, 15.985 337.250 C 15.993 336.563, 16.675 336, 17.500 336 C 18.325 336, 19 336.450, 19 337 C 19 337.550, 20.709 338, 22.797 338 C 26.132 338, 27.196 337.332, 31.530 332.517 C 36.931 326.517, 41.028 324.410, 44.099 326.053 C 45.144 326.612, 46 327.478, 46 327.976 C 46 329.541, 43.875 330.275, 42.713 329.113 C 41.234 327.634, 40 327.702, 40 329.263 C 40 329.957, 38.988 330.970, 37.750 331.513 C 36.513 332.056, 35.500 333.157, 35.500 333.961 C 35.500 335.147, 37.890 335.484, 48.250 335.757 C 55.263 335.942, 61 335.719, 61 335.262 C 61 334.805, 59.537 333.585, 57.750 332.552 C 55.962 331.518, 52.682 328.721, 50.460 326.336 C 47.096 322.727, 45.797 322, 42.710 322 C 39.379 322, 39 321.734, 39 319.394 C 39 317.961, 37.918 315.503, 36.596 313.931 C 35.273 312.360, 34.009 310.528, 33.787 309.860 C 32.993 307.478, 30.951 310.205, 31.164 313.363 C 31.283 315.130, 31.043 317.121, 30.631 317.788 C 30.142 318.579, 30.560 319, 31.834 319 C 34.423 319, 35.396 321.724, 33.213 322.861 C 32.271 323.352, 28.462 324.069, 24.750 324.456 C 21.037 324.843, 18 325.518, 18 325.957 C 18 327.348, 20.583 328.967, 23.845 329.619 C 27.141 330.278, 27.836 331.764, 25.800 333.800 C 23.720 335.880, 22.112 335.129, 19.274 330.750 C 17.759 328.413, 15.880 326.099, 15.098 325.610 C 12.920 324.246, 19.582 321.093, 24.750 321.042 C 29.089 320.999, 29.886 320.286, 27.858 318.258 C 27.003 317.403, 27.128 316.250, 28.358 313.657 C 29.261 311.755, 30 309.689, 30 309.067 C 30 307.027, 27.204 306.809, 23.512 308.562 C 20.793 309.852, 19.597 309.997, 18.742 309.142 C 16.714 307.114, 16.001 307.911, 15.958 312.250 C 15.916 316.560, 12.775 324.064, 11.725 322.365 C 11.066 321.298, 13.333 304.888, 14.372 303.207 C 15.408 301.531, 18 302.930, 18 305.166 C 18 306.440, 18.421 306.858, 19.212 306.369 C 19.879 305.957, 21.852 305.716, 23.596 305.833 C 27.187 306.075, 29.127 303.492, 26.081 302.526 C 25.081 302.208, 23.460 301.060, 22.477 299.974 C 21.494 298.889, 19.410 298, 17.845 298 C 15.236 298, 15 297.696, 15 294.335 C 15 291.262, 14.225 289.928, 10.208 286.085 C 7.573 283.563, 4.873 280.241, 4.208 278.703 C 2.679 275.162, 2.676 274.276, 4.200 275.800 C 4.860 276.460, 5.760 277, 6.200 277 C 6.640 277, 7 228.175, 7 168.500 C 7 108.825, 6.620 60, 6.155 60 C 5.690 60, 4.598 60.788, 3.727 61.750 M 474 168.500 C 474 228.175, 474.380 277, 474.845 277 C 475.310 277, 476.435 276.177, 477.345 275.171 C 478.863 273.494, 479 264.642, 479 168.326 C 479 67.858, 478.921 63.238, 477.171 61.655 C 476.165 60.745, 475.040 60, 474.671 60 C 474.302 60, 474 108.825, 474 168.500 M 477.509 277.971 C 477.165 279.055, 474.435 282.450, 471.442 285.516 C 466.978 290.088, 466 291.710, 466 294.545 C 466 297.601, 465.699 298, 463.394 298 C 461.961 298, 459.503 299.082, 457.931 300.404 C 456.360 301.727, 454.528 302.991, 453.860 303.213 C 451.478 304.007, 454.205 306.049, 457.363 305.836 C 459.130 305.717, 461.121 305.957, 461.788 306.369 C 462.587 306.863, 463 306.417, 463 305.059 C 463 303.115, 463.349 302.843, 466.155 302.600 C 467.416 302.491, 467.411 302.469, 468.445 312.250 C 469.309 320.419, 471.372 321.378, 473.220 314.468 C 474.485 309.738, 476.302 308.938, 478.359 312.205 C 479.206 313.549, 478.927 314.449, 477.042 316.455 C 475.727 317.855, 474.125 319, 473.481 319 C 472.837 319, 471.476 319.922, 470.456 321.049 C 468.602 323.097, 468.601 323.097, 466.843 319.799 C 465.875 317.984, 465.065 314.587, 465.042 312.250 C 464.999 307.911, 464.286 307.114, 462.258 309.142 C 461.403 309.997, 460.207 309.852, 457.488 308.562 C 453.796 306.809, 451 307.027, 451 309.067 C 451 309.689, 451.739 311.755, 452.642 313.657 C 453.872 316.250, 453.997 317.403, 453.142 318.258 C 451.090 320.310, 451.928 321, 456.476 321 C 460.834 321, 468.112 324.195, 466.302 325.313 C 465.280 325.945, 448.831 323.632, 447.207 322.628 C 445.531 321.592, 446.930 319, 449.166 319 C 450.440 319, 450.858 318.579, 450.369 317.788 C 449.957 317.121, 449.716 315.148, 449.833 313.404 C 450.075 309.813, 447.492 307.873, 446.526 310.919 C 446.208 311.919, 445.060 313.540, 443.974 314.523 C 442.889 315.506, 442 317.590, 442 319.155 C 442 321.748, 441.685 322, 438.444 322 C 435.487 322, 434.087 322.834, 430.142 326.949 C 427.532 329.672, 424.182 332.360, 422.698 332.925 C 421.214 333.489, 420 334.433, 420 335.022 C 420 335.745, 424.143 335.984, 432.750 335.757 C 443.110 335.484, 445.500 335.147, 445.500 333.961 C 445.500 333.157, 444.488 332.056, 443.250 331.513 C 442.012 330.970, 441 329.957, 441 329.263 C 441 327.779, 439.379 327.578, 438.527 328.956 C 437.850 330.052, 435 329.221, 435 327.928 C 435 327.456, 435.856 326.612, 436.901 326.053 C 439.972 324.410, 444.069 326.517, 449.470 332.517 C 453.967 337.513, 454.780 338, 458.619 338 C 461.053 338, 463.048 337.472, 463.341 336.750 C 463.734 335.780, 464.061 335.805, 464.803 336.863 C 465.609 338.014, 465.855 338.014, 466.379 336.863 C 466.860 335.808, 467.132 335.782, 467.583 336.750 C 467.904 337.438, 469.667 338, 471.500 338 C 473.333 338, 475.062 337.438, 475.341 336.750 C 475.737 335.772, 476.052 335.791, 476.785 336.834 C 477.545 337.917, 477.836 337.870, 478.329 336.584 C 478.664 335.713, 479.626 335, 480.469 335 C 482.304 335, 482.525 332.378, 480.750 331.662 C 479.750 331.259, 479.750 331.142, 480.750 331.079 C 481.491 331.032, 482 329.608, 482 327.583 C 482 325.704, 481.438 323.938, 480.750 323.659 C 479.780 323.266, 479.805 322.939, 480.863 322.197 C 482.014 321.391, 482.014 321.145, 480.863 320.621 C 479.808 320.140, 479.782 319.868, 480.750 319.417 C 482.092 318.791, 482.559 309.025, 481.250 308.967 C 479.591 308.893, 471.048 300.257, 470.059 297.654 C 468.494 293.539, 471.496 288.757, 473.554 292.087 C 473.923 292.685, 473.725 293.675, 473.113 294.287 C 471.634 295.766, 471.702 297, 473.263 297 C 473.957 297, 474.970 298.012, 475.513 299.250 C 476.056 300.488, 477.157 301.500, 477.961 301.500 C 479.147 301.500, 479.484 299.110, 479.757 288.750 C 479.965 280.870, 479.719 276, 479.114 276 C 478.575 276, 477.853 276.887, 477.509 277.971 M 3.200 311.200 C 1.443 312.957, 1.720 314.399, 4.250 316.677 C 6.329 318.549, 10 320.404, 10 319.583 C 10 319.388, 9.328 317.940, 8.506 316.364 C 7.685 314.789, 7.010 312.712, 7.006 311.750 C 6.999 309.737, 4.958 309.442, 3.200 311.200 M 7.505 323.992 C 7.168 324.537, 8.076 326.167, 9.523 327.614 C 11.451 329.542, 12.451 329.949, 13.264 329.136 C 14.077 328.323, 13.742 327.354, 12.012 325.513 C 9.455 322.791, 8.456 322.454, 7.505 323.992 M 468.988 325.513 C 467.258 327.354, 466.923 328.323, 467.736 329.136 C 468.549 329.949, 469.549 329.542, 471.477 327.614 C 472.924 326.167, 473.832 324.537, 473.495 323.992 C 472.544 322.454, 471.545 322.791, 468.988 325.513 M 458.732 328.896 C 453.803 330.554, 452.982 332.330, 456.205 334.359 C 457.545 335.203, 458.435 334.940, 460.361 333.131 C 461.709 331.864, 463.037 329.967, 463.312 328.914 C 463.588 327.861, 463.742 327.066, 463.656 327.146 C 463.570 327.227, 461.355 328.014, 458.732 328.896 M 3.980 331.524 C 3.284 332.362, 2.993 333.327, 3.333 333.667 C 4.060 334.393, 7 332.156, 7 330.878 C 7 329.500, 5.370 329.849, 3.980 331.524 M 60 330.845 C 60 331.310, 60.823 332.435, 61.829 333.345 C 63.516 334.872, 77.362 335, 240.674 335 C 410.894 335, 417.754 334.930, 419.345 333.171 C 420.255 332.165, 421 331.040, 421 330.671 C 421 330.302, 339.775 330, 240.500 330 C 141.225 330, 60 330.380, 60 330.845 M 474 330.965 C 474 331.495, 474.968 332.448, 476.152 333.081 C 478.009 334.075, 478.214 334.001, 477.652 332.535 C 477.293 331.601, 477 330.648, 477 330.418 C 477 330.188, 476.325 330, 475.500 330 C 474.675 330, 474 330.434, 474 330.965" fill="currentColor" style="color: var(--ornament-color, #50468b)" fill-rule="evenodd"/>
</svg>
